<svg width="398" height="48" viewBox="0 0 398 48" fill="none" xmlns="http://www.w3.org/2000/svg">
<g filter="url(#filter0_b_4691_556)">
<path d="M8.20015 48V6.61527e-06L0 0V48L8.20015 48Z" fill="#F3BD00"/>
<path d="M17.6491 19.1083V6.61527e-06L47.8174 16.6499C47.135 17.3614 46.4225 18.1973 45.8149 19.1083H17.6491Z" fill="#F3BD00"/>
<path d="M47.919 31.2941C47.3727 30.6454 46.7339 29.8202 46.1434 28.8917H17.6491V48L47.919 31.2941Z" fill="#F3BD00"/>
<path d="M51.3032 18.4977L61.4421 24.0596L51.3032 29.6215C51.3032 29.6215 47.9235 26.7747 47.9235 24.0596C47.9235 21.3445 51.3032 18.4977 51.3032 18.4977Z" fill="#F3BD00"/>
<path d="M85.368 36.3063C83.1518 36.3063 81.4228 35.6813 80.181 34.4313C78.955 33.1813 78.342 31.4566 78.342 29.2572V16.2745H74.4753V12.1447H78.4127V5.92626L83.1989 2.41357V12.1447H89.329V16.2745H83.1989V28.4265C83.1989 29.6923 83.4583 30.6021 83.977 31.1559C84.4957 31.6939 85.2423 31.9629 86.2168 31.9629C87.1599 31.9629 88.1895 31.7097 89.3055 31.2034L89.329 35.6417C88.8575 35.8158 88.2602 35.9661 87.5372 36.0927C86.8141 36.2351 86.0911 36.3063 85.368 36.3063Z" fill="#F5F5F5"/>
<path d="M103.335 36.3063C100.836 36.3063 98.7138 35.7604 96.969 34.6686C95.2243 33.561 93.9118 32.0816 93.0316 30.2303C92.1514 28.379 91.7113 26.3378 91.7113 24.1068C91.7113 21.9074 92.1278 19.8663 92.9609 17.9833C93.8097 16.0846 95.075 14.5656 96.7568 13.4263C98.4544 12.2713 100.513 11.6937 102.934 11.6937C105.465 11.6937 107.524 12.2792 109.111 13.4501C110.715 14.6051 111.862 16.0688 112.554 17.8409C113.261 19.6131 113.615 21.4406 113.615 23.3236C113.615 23.7666 113.591 24.2017 113.544 24.629C113.512 25.0562 113.473 25.3568 113.426 25.5309H96.8511C97.0712 27.5246 97.7157 29.0752 98.7845 30.1828C99.8691 31.2904 101.394 31.8442 103.358 31.8442C104.569 31.8442 105.661 31.6385 106.636 31.2271C107.626 30.8157 108.561 30.1274 109.441 29.1622L112.789 32.129C111.485 33.5531 110.062 34.6053 108.522 35.2857C106.997 35.9661 105.268 36.3063 103.335 36.3063ZM108.805 21.9707C108.836 21.4486 108.789 20.9501 108.663 20.4754C108.412 19.083 107.783 17.9596 106.777 17.1052C105.771 16.2507 104.474 15.8235 102.887 15.8235C101.127 15.8235 99.7433 16.3773 98.7373 17.4849C97.7471 18.5925 97.1184 20.0878 96.8511 21.9707H108.805Z" fill="#F5F5F5"/>
<path d="M127.149 36.3063C124.791 36.3063 122.771 35.7446 121.09 34.6211C119.408 33.4977 118.142 32.0024 117.294 30.1353C116.445 28.2682 116.02 26.235 116.02 24.0356C116.02 21.8837 116.437 19.8663 117.27 17.9833C118.103 16.1004 119.353 14.5814 121.019 13.4263C122.701 12.2713 124.728 11.6937 127.102 11.6937C129.412 11.6937 131.432 12.2713 133.161 13.4263C134.89 14.5814 136.187 16.2824 137.051 18.5292L132.43 20.333C132.022 19.0672 131.346 18.0545 130.403 17.295C129.46 16.5355 128.359 16.1558 127.102 16.1558C125.719 16.1558 124.563 16.5276 123.636 17.2713C122.724 17.9992 122.048 18.9644 121.608 20.1669C121.184 21.3536 120.972 22.6432 120.972 24.0356C120.972 25.4438 121.184 26.7413 121.608 27.928C122.048 29.1148 122.724 30.0641 123.636 30.7762C124.563 31.4882 125.719 31.8442 127.102 31.8442C128.375 31.8442 129.475 31.4724 130.403 30.7287C131.346 29.985 132.006 28.9882 132.383 27.7382L136.816 29.4233C136.045 31.591 134.812 33.2841 133.114 34.5025C131.416 35.705 129.428 36.3063 127.149 36.3063Z" fill="#F5F5F5"/>
<path d="M140.896 2.31864H145.847V15.3251C146.68 14.1225 147.709 13.2206 148.935 12.6194C150.161 12.0023 151.458 11.6937 152.826 11.6937C154.712 11.6937 156.292 12.1368 157.565 13.0228C158.854 13.9089 159.805 15.0798 160.418 16.5355C161.031 17.9912 161.345 19.5973 161.361 21.3536V35.8553H156.409V22.0894C156.409 20.2381 156.048 18.7903 155.325 17.746C154.602 16.6859 153.376 16.1558 151.647 16.1558C150.405 16.1558 149.344 16.4643 148.464 17.0814C147.599 17.6985 146.947 18.553 146.507 19.6447C146.067 20.7207 145.847 21.9549 145.847 23.3473V35.8553H140.896V2.31864Z" fill="#F5F5F5"/>
<path d="M167.185 12.1447H172.207V15.4675C172.977 14.2491 174.007 13.3156 175.296 12.6668C176.6 12.0181 177.999 11.6937 179.493 11.6937C181.567 11.6937 183.367 12.2475 184.892 13.3551C186.416 14.4627 187.572 15.958 188.358 17.8409C189.159 19.708 189.56 21.765 189.56 24.0119C189.56 26.2587 189.159 28.3236 188.358 30.2065C187.572 32.0736 186.409 33.561 184.868 34.6686C183.344 35.7604 181.528 36.3063 179.422 36.3063C177.929 36.3063 176.545 35.9898 175.272 35.3569C173.999 34.7082 172.977 33.7667 172.207 32.5325V45.6814H167.185V12.1447ZM178.29 31.8442C179.673 31.8442 180.837 31.504 181.78 30.8236C182.738 30.1433 183.454 29.2097 183.925 28.023C184.397 26.8363 184.632 25.4992 184.632 24.0119C184.632 22.5087 184.397 21.1717 183.925 20.0008C183.454 18.8299 182.738 17.9121 181.78 17.2476C180.837 16.5672 179.673 16.227 178.29 16.227C176.907 16.227 175.72 16.5672 174.73 17.2476C173.755 17.9121 173.017 18.8299 172.514 20.0008C172.011 21.1717 171.759 22.5087 171.759 24.0119C171.759 25.4992 172.011 26.8363 172.514 28.023C173.017 29.2097 173.755 30.1433 174.73 30.8236C175.72 31.504 176.907 31.8442 178.29 31.8442Z" fill="#F5F5F5"/>
<path d="M202.529 11.6937C204.588 11.6937 206.364 12.0972 207.857 12.9042C209.35 13.7111 210.49 14.8504 211.276 16.3219C212.062 17.7776 212.455 19.4786 212.455 21.4248V35.8553H208.423L208.093 32.1528C207.338 33.4819 206.246 34.5104 204.816 35.2382C203.401 35.9503 201.916 36.3063 200.359 36.3063C198.741 36.3063 197.294 36.0056 196.021 35.4044C194.748 34.8031 193.75 33.9328 193.027 32.7936C192.304 31.6385 191.942 30.2777 191.942 28.7113C191.942 26.3062 192.791 24.5657 194.489 23.4897C196.186 22.4138 198.513 21.8758 201.468 21.8758H208.022C207.991 20.4675 207.802 19.3441 207.456 18.5055C207.11 17.6511 206.545 17.0181 205.759 16.6067C204.988 16.1953 203.92 15.9896 202.552 15.9896C201.216 15.9896 200.045 16.3061 199.039 16.939C198.049 17.5719 197.232 18.4264 196.587 19.5023L192.862 16.7966C194.056 15.1352 195.424 13.8694 196.964 12.9991C198.52 12.1289 200.375 11.6937 202.529 11.6937ZM201.326 32.129C202.552 32.129 203.637 31.86 204.58 31.3221C205.539 30.7841 206.309 30.0641 206.89 29.1622C207.472 28.2603 207.849 27.2635 208.022 26.1717V25.4359H201.751C200.179 25.4359 198.984 25.7524 198.167 26.3853C197.349 27.0024 196.941 27.8252 196.941 28.8537C196.941 29.8505 197.318 30.6496 198.072 31.2509C198.827 31.8363 199.912 32.129 201.326 32.129Z" fill="#F5F5F5"/>
<path d="M226.508 11.6937C228.567 11.6937 230.343 12.0972 231.836 12.9042C233.329 13.7111 234.469 14.8504 235.255 16.3219C236.041 17.7776 236.434 19.4786 236.434 21.4248V35.8553H232.402L232.072 32.1528C231.318 33.4819 230.225 34.5104 228.795 35.2382C227.38 35.9503 225.895 36.3063 224.339 36.3063C222.72 36.3063 221.274 36.0056 220 35.4044C218.727 34.8031 217.729 33.9328 217.006 32.7936C216.283 31.6385 215.921 30.2777 215.921 28.7113C215.921 26.3062 216.77 24.5657 218.468 23.4897C220.165 22.4138 222.492 21.8758 225.447 21.8758H232.001C231.97 20.4675 231.781 19.3441 231.435 18.5055C231.09 17.6511 230.524 17.0181 229.738 16.6067C228.968 16.1953 227.899 15.9896 226.531 15.9896C225.195 15.9896 224.024 16.3061 223.018 16.939C222.028 17.5719 221.211 18.4264 220.566 19.5023L216.841 16.7966C218.036 15.1352 219.403 13.8694 220.943 12.9991C222.5 12.1289 224.354 11.6937 226.508 11.6937ZM225.305 32.129C226.531 32.129 227.616 31.86 228.559 31.3221C229.518 30.7841 230.288 30.0641 230.87 29.1622C231.451 28.2603 231.828 27.2635 232.001 26.1717V25.4359H225.73C224.158 25.4359 222.963 25.7524 222.146 26.3853C221.329 27.0024 220.92 27.8252 220.92 28.8537C220.92 29.8505 221.297 30.6496 222.052 31.2509C222.806 31.8363 223.891 32.129 225.305 32.129Z" fill="#F5F5F5"/>
<path d="M249.968 36.3063C247.752 36.3063 246.023 35.6813 244.781 34.4313C243.555 33.1813 242.942 31.4566 242.942 29.2572V16.2745H239.075V12.1447H243.013V5.92626L247.799 2.41357V12.1447H253.929V16.2745H247.799V28.4265C247.799 29.6923 248.058 30.6021 248.577 31.1559C249.096 31.6939 249.842 31.9629 250.817 31.9629C251.76 31.9629 252.79 31.7097 253.906 31.2034L253.929 35.6417C253.458 35.8158 252.86 35.9661 252.137 36.0927C251.414 36.2351 250.691 36.3063 249.968 36.3063Z" fill="#F5F5F5"/>
<path d="M257.632 2.31864H262.583V15.3251C263.416 14.1225 264.446 13.2206 265.672 12.6194C266.898 12.0023 268.194 11.6937 269.562 11.6937C271.448 11.6937 273.028 12.1368 274.301 13.0228C275.59 13.9089 276.541 15.0798 277.154 16.5355C277.767 17.9912 278.081 19.5973 278.097 21.3536V35.8553H273.146V22.0894C273.146 20.2381 272.784 18.7903 272.061 17.746C271.338 16.6859 270.112 16.1558 268.383 16.1558C267.141 16.1558 266.08 16.4643 265.2 17.0814C264.336 17.6985 263.683 18.553 263.243 19.6447C262.803 20.7207 262.583 21.9549 262.583 23.3473V35.8553H257.632V2.31864Z" fill="#F5F5F5"/>
<path d="M290.924 36.3063C289.352 36.3063 287.89 36.0215 286.538 35.4518C285.202 34.8664 284.063 34.0832 283.12 33.1021C282.192 32.1053 281.532 30.9977 281.139 29.7793L285.053 28.0467C285.477 29.2176 286.146 30.2065 287.057 31.0135C287.969 31.8047 289.179 32.2002 290.688 32.2002C291.631 32.2002 292.425 32.042 293.069 31.7255C293.73 31.4091 294.225 30.9977 294.555 30.4914C294.885 29.985 295.05 29.447 295.05 28.8774C295.05 28.2287 294.838 27.7065 294.413 27.3109C293.989 26.8996 293.454 26.5752 292.81 26.3378C292.166 26.1005 291.27 25.8315 290.122 25.5309C288.535 25.1195 287.238 24.7081 286.232 24.2967C285.242 23.8695 284.385 23.2207 283.662 22.3505C282.955 21.4644 282.601 20.2777 282.601 18.7903C282.601 17.2713 282.986 15.9817 283.756 14.9216C284.527 13.8456 285.556 13.0387 286.845 12.5007C288.134 11.9627 289.556 11.6937 291.112 11.6937C293.062 11.6937 294.783 12.1368 296.276 13.0228C297.769 13.9089 298.956 15.1589 299.836 16.7729L296.064 18.8378C294.885 16.67 293.179 15.5862 290.947 15.5862C289.831 15.5862 288.936 15.8314 288.26 16.3219C287.599 16.7966 287.269 17.4058 287.269 18.1495C287.269 18.7033 287.466 19.1701 287.859 19.5498C288.267 19.9137 288.778 20.2144 289.391 20.4517C290.004 20.6732 290.845 20.9343 291.914 21.2349C293.565 21.6938 294.916 22.1606 295.969 22.6353C297.023 23.0941 297.926 23.8062 298.681 24.7714C299.451 25.7366 299.836 27.0261 299.836 28.6401C299.836 30.3173 299.42 31.7335 298.586 32.8885C297.753 34.0278 296.661 34.8822 295.309 35.4518C293.957 36.0215 292.496 36.3063 290.924 36.3063Z" fill="#F5F5F5"/>
<path d="M304.553 2.31864H309.504V15.3251C310.337 14.1225 311.366 13.2206 312.592 12.6194C313.818 12.0023 315.115 11.6937 316.483 11.6937C318.369 11.6937 319.949 12.1368 321.222 13.0228C322.511 13.9089 323.462 15.0798 324.075 16.5355C324.688 17.9912 325.002 19.5973 325.018 21.3536V35.8553H320.066V22.0894C320.066 20.2381 319.705 18.7903 318.982 17.746C318.259 16.6859 317.033 16.1558 315.304 16.1558C314.062 16.1558 313.001 16.4643 312.121 17.0814C311.256 17.6985 310.604 18.553 310.164 19.6447C309.724 20.7207 309.504 21.9549 309.504 23.3473V35.8553H304.553V2.31864Z" fill="#F5F5F5"/>
<path d="M339.236 11.6937C341.295 11.6937 343.071 12.0972 344.564 12.9042C346.057 13.7111 347.197 14.8504 347.983 16.3219C348.769 17.7776 349.162 19.4786 349.162 21.4248V35.8553H345.13L344.8 32.1528C344.046 33.4819 342.953 34.5104 341.523 35.2382C340.108 35.9503 338.623 36.3063 337.067 36.3063C335.448 36.3063 334.002 36.0056 332.728 35.4044C331.455 34.8031 330.457 33.9328 329.734 32.7936C329.011 31.6385 328.65 30.2777 328.65 28.7113C328.65 26.3062 329.498 24.5657 331.196 23.4897C332.893 22.4138 335.22 21.8758 338.175 21.8758H344.729C344.698 20.4675 344.509 19.3441 344.163 18.5055C343.818 17.6511 343.252 17.0181 342.466 16.6067C341.696 16.1953 340.627 15.9896 339.259 15.9896C337.923 15.9896 336.752 16.3061 335.746 16.939C334.756 17.5719 333.939 18.4264 333.294 19.5023L329.569 16.7966C330.764 15.1352 332.131 13.8694 333.671 12.9991C335.228 12.1289 337.082 11.6937 339.236 11.6937ZM338.033 32.129C339.259 32.129 340.344 31.86 341.287 31.3221C342.246 30.7841 343.016 30.0641 343.598 29.1622C344.179 28.2603 344.556 27.2635 344.729 26.1717V25.4359H338.458C336.886 25.4359 335.691 25.7524 334.874 26.3853C334.057 27.0024 333.648 27.8252 333.648 28.8537C333.648 29.8505 334.025 30.6496 334.78 31.2509C335.534 31.8363 336.619 32.129 338.033 32.129Z" fill="#F5F5F5"/>
<path d="M359.513 36.3063C357.973 36.3063 356.794 35.9028 355.977 35.0958C355.175 34.273 354.774 32.9202 354.774 31.0372V2.31864H359.631V29.7081C359.631 30.4202 359.796 30.966 360.126 31.3458C360.456 31.7097 360.999 31.8917 361.753 31.8917C362.146 31.8917 362.712 31.8363 363.451 31.7255L363.474 35.8553C362.012 36.156 360.692 36.3063 359.513 36.3063Z" fill="#F5F5F5"/>
<path d="M375.594 11.6937C377.653 11.6937 379.429 12.0972 380.922 12.9042C382.416 13.7111 383.555 14.8504 384.341 16.3219C385.127 17.7776 385.52 19.4786 385.52 21.4248V35.8553H381.488L381.158 32.1528C380.404 33.4819 379.311 34.5104 377.881 35.2382C376.466 35.9503 374.981 36.3063 373.425 36.3063C371.806 36.3063 370.36 36.0056 369.087 35.4044C367.813 34.8031 366.815 33.9328 366.092 32.7936C365.369 31.6385 365.008 30.2777 365.008 28.7113C365.008 26.3062 365.856 24.5657 367.554 23.4897C369.252 22.4138 371.578 21.8758 374.533 21.8758H381.087C381.056 20.4675 380.867 19.3441 380.522 18.5055C380.176 17.6511 379.61 17.0181 378.824 16.6067C378.054 16.1953 376.985 15.9896 375.617 15.9896C374.281 15.9896 373.11 16.3061 372.104 16.939C371.114 17.5719 370.297 18.4264 369.652 19.5023L365.927 16.7966C367.122 15.1352 368.489 13.8694 370.03 12.9991C371.586 12.1289 373.44 11.6937 375.594 11.6937ZM374.391 32.129C375.617 32.129 376.702 31.86 377.645 31.3221C378.604 30.7841 379.374 30.0641 379.956 29.1622C380.537 28.2603 380.915 27.2635 381.087 26.1717V25.4359H374.816C373.244 25.4359 372.049 25.7524 371.232 26.3853C370.415 27.0024 370.006 27.8252 370.006 28.8537C370.006 29.8505 370.383 30.6496 371.138 31.2509C371.892 31.8363 372.977 32.129 374.391 32.129Z" fill="#F5F5F5"/>
<path d="M389.544 34.4416C389.544 33.8788 389.641 33.3548 389.834 32.8696C390.047 32.365 390.327 31.9284 390.676 31.5596C391.043 31.1909 391.469 30.8998 391.953 30.6863C392.456 30.4728 392.988 30.3661 393.549 30.3661C394.11 30.3661 394.632 30.4728 395.116 30.6863C395.619 30.8998 396.054 31.1909 396.422 31.5596C396.79 31.9284 397.08 32.365 397.293 32.8696C397.505 33.3548 397.612 33.8788 397.612 34.4416C397.612 35.0238 397.505 35.5575 397.293 36.0427C397.08 36.5279 396.79 36.9548 396.422 37.3236C396.054 37.6923 395.619 37.9737 395.116 38.1678C394.632 38.3812 394.11 38.488 393.549 38.488C392.988 38.488 392.456 38.3812 391.953 38.1678C391.469 37.9737 391.043 37.6923 390.676 37.3236C390.327 36.9548 390.047 36.5279 389.834 36.0427C389.641 35.5575 389.544 35.0238 389.544 34.4416Z" fill="#F3BD00"/>
</g>
<defs>
<filter id="filter0_b_4691_556" x="-50" y="-50" width="497.611" height="148" filterUnits="userSpaceOnUse" color-interpolation-filters="sRGB">
<feFlood flood-opacity="0" result="BackgroundImageFix"/>
<feGaussianBlur in="BackgroundImageFix" stdDeviation="25"/>
<feComposite in2="SourceAlpha" operator="in" result="effect1_backgroundBlur_4691_556"/>
<feBlend mode="normal" in="SourceGraphic" in2="effect1_backgroundBlur_4691_556" result="shape"/>
</filter>
</defs>
</svg>
